<svg width="77" height="56" viewBox="0 0 77 56" fill="none" xmlns="http://www.w3.org/2000/svg">
<path d="M17.7945 39.1915H1.31002C0.600428 39.1915 0 38.5911 0 37.8815C0 37.1719 0.600428 36.5715 1.31002 36.5715H17.7945C18.5041 36.5715 19.1045 37.1719 19.1045 37.8815C19.1045 38.5911 18.5041 39.1915 17.7945 39.1915Z" fill="#4E434D"/>
<path d="M23.3621 46.2875H15.6657C14.9561 46.2875 14.3557 45.687 14.3557 44.9774C14.3557 44.2678 14.9561 43.6674 15.6657 43.6674H23.3621C24.0717 43.6674 24.6721 44.2678 24.6721 44.9774C24.6721 45.687 24.0717 46.2875 23.3621 46.2875Z" fill="#4E434D"/>
<path d="M29.9668 53.7109H14.3557C13.6461 53.7109 13.0457 53.1105 13.0457 52.4009C13.0457 51.6913 13.6461 51.0909 14.3557 51.0909H29.9668C30.6764 51.0909 31.2768 51.6913 31.2768 52.4009C31.2768 53.1651 30.6764 53.7109 29.9668 53.7109Z" fill="#4E434D"/>
<path d="M70.5229 6.71387C70.4683 6.55011 70.3045 6.55011 70.1408 6.55011C69.1037 6.27719 68.1757 5.78593 67.357 5.07634C66.702 4.47591 66.0469 3.8209 65.3919 3.22047C64.6823 2.56546 63.8636 2.0742 62.8811 2.12879C61.1889 2.12879 59.8243 2.89297 58.7327 4.09382C58.3506 4.58508 58.0231 5.07634 57.641 5.62218C57.7501 5.45843 57.8047 5.24009 57.9139 5.02175C58.0231 4.80342 58.1322 4.58508 58.2414 4.42133C58.3506 4.25757 58.5143 4.03924 58.5689 3.8209C58.6235 3.71173 58.6235 3.54798 58.6235 3.38423C58.5689 3.16589 58.4597 2.94755 58.296 2.72921C58.0776 2.45629 57.7501 2.23796 57.4772 2.01962C56.6584 1.47378 55.8943 0.927933 55.4576 0C54.5297 1.0371 54.3113 2.94755 54.9118 4.14841C55.1847 4.63966 55.5122 5.13092 55.8943 5.5676C56.2218 5.94969 56.3855 6.49553 56.7676 6.82303C56.9314 6.9322 57.0951 7.04137 57.3135 7.09596C58.4597 7.53263 59.606 8.02389 60.7523 8.56973C61.844 9.11557 62.9356 9.49766 64.1365 9.55225C66.5382 9.66142 68.5578 8.6789 70.2499 7.04137C70.3591 6.9322 70.5229 6.87762 70.5229 6.71387ZM56.1126 2.83838C57.5864 3.32964 58.0776 4.36674 57.2589 5.29467C57.8593 4.03924 56.986 3.49339 56.1126 2.83838ZM63.9182 5.67676C62.6081 4.36674 61.3527 4.31216 59.9335 5.18551C59.8789 5.18551 59.8243 5.24009 59.7697 5.24009C60.8068 3.98465 62.5535 3.76632 63.7544 5.07634C64.1911 5.51301 64.5732 5.94969 65.0098 6.44094C64.5732 6.33178 64.2457 6.00427 63.9182 5.67676Z" fill="url(#paint0_linear_167_408)"/>
<path d="M71.014 16.8665C71.014 17.9582 70.2498 18.777 69.1581 18.777C68.121 18.777 67.2477 17.9582 67.1931 16.9757C67.1931 15.884 68.0119 15.0107 69.1036 15.0107C70.1407 14.9561 71.014 15.8294 71.014 16.8665Z" fill="#D4DB28"/>
<path d="M60.8614 15.3382C60.916 14.6832 61.4619 14.1919 62.1715 14.2465C62.8265 14.3011 63.3177 14.8469 63.2631 15.4474C63.2086 16.157 62.6627 16.6482 62.0077 16.5936C61.3527 16.5391 60.8069 15.9932 60.8614 15.3382Z" fill="#D4DB28"/>
<path d="M76.4726 15.9386C76.4726 16.4299 76.0905 16.8665 75.5447 16.9211C74.9988 16.9211 74.5076 16.4844 74.5076 15.9932C74.5076 15.5019 74.9442 15.0652 75.4355 15.0107C75.9813 14.9561 76.4726 15.3927 76.4726 15.9386Z" fill="#D4DB28"/>
<path d="M66.047 12.8273C65.9378 13.1548 65.7741 13.4277 65.4466 13.3731C65.1191 13.3186 64.9553 13.1002 64.9553 12.7727C64.9553 12.3906 65.2282 12.2269 65.5558 12.2269C65.8833 12.2815 66.047 12.4998 66.047 12.8273Z" fill="#D4DB28"/>
<path d="M73.3613 20.4145C73.143 20.3599 72.9792 20.2507 72.9792 19.9778C72.9792 19.7049 73.143 19.5411 73.4159 19.5957C73.6343 19.6503 73.798 19.8141 73.7434 20.0324C73.7434 20.3053 73.5797 20.4145 73.3613 20.4145Z" fill="#D4DB28"/>
<path d="M59.5515 22.325C59.3878 20.9058 59.0603 19.5412 58.569 18.2312H58.6236C58.3507 17.1941 57.9686 16.157 57.5319 15.0653C56.8769 13.5915 56.2765 12.1177 55.8398 10.5894C55.4031 9.06101 54.5298 8.02391 52.8923 7.6964C51.1456 7.31431 49.4535 6.6593 47.8159 6.00429C46.6151 5.51303 45.4142 5.24011 44.1588 5.02177C43.8313 4.96719 43.5038 4.9126 43.1763 4.9126C41.5933 4.5851 39.9558 4.36676 38.2637 4.36676C33.7878 4.47593 29.1481 6.22263 25.1635 9.7706C16.7029 17.4124 16.1025 30.7855 24.0172 39.0278C28.766 43.9404 33.624 50.4359 38.482 55.2393C38.9733 55.7306 39.3008 55.7306 39.7375 55.2393C44.4863 50.4905 49.2897 44.0495 53.9294 39.2461C58.5144 34.5519 60.3703 28.8205 59.5515 22.325ZM39.1916 40.9382C30.4035 40.9382 23.3076 33.8423 23.3076 25.0542C23.3076 16.2661 30.4035 9.17018 39.1916 9.17018C47.9797 9.17018 55.0756 16.2661 55.0756 25.0542C55.0756 33.8423 47.9797 40.9382 39.1916 40.9382Z" fill="url(#paint1_linear_167_408)"/>
<path d="M38.5364 18.5041C38.5364 19.5412 38.5364 20.5783 38.5364 21.6154C38.5364 21.9975 38.5364 22.3796 38.0997 22.5433C37.7176 22.7071 37.4447 22.4887 37.1718 22.2158C35.5888 20.6329 34.0059 19.1045 32.4775 17.467C31.495 16.4299 31.7133 15.1198 32.8596 14.3557C33.7875 13.7552 34.8246 13.3731 35.8617 13.1002C37.3901 12.7181 38.4818 13.5915 38.4818 15.1744C38.591 16.3207 38.5364 17.4124 38.5364 18.5041Z" fill="#D4DB28"/>
<path d="M38.5365 31.8226C38.5365 32.8597 38.5365 33.8968 38.5365 34.9339C38.5365 36.626 37.3357 37.4994 35.6981 37.0627C34.7156 36.7898 33.7331 36.4077 32.8597 35.8618C31.7135 35.1522 31.5497 33.6785 32.4777 32.6959C34.006 31.1676 35.5344 29.6392 37.0627 28.1109C37.3902 27.7834 37.6632 27.5104 38.0998 27.6742C38.5365 27.8379 38.4819 28.22 38.4819 28.6567C38.4819 29.6938 38.4819 30.7309 38.5365 31.8226Z" fill="#D4DB28"/>
<path d="M32.3138 24.4537C31.2221 24.4537 30.185 24.4537 29.0934 24.4537C27.6742 24.4537 26.8008 23.2529 27.1283 21.8883C27.4012 20.9058 27.7833 19.9232 28.2746 18.9953C29.0388 17.5761 30.5125 17.3578 31.6588 18.5041C33.2418 20.0324 34.7701 21.6154 36.2985 23.1437C36.5168 23.3621 36.7352 23.5804 36.626 23.9625C36.4622 24.3446 36.1893 24.4537 35.8072 24.4537C34.661 24.5083 33.4601 24.5083 32.3138 24.4537Z" fill="#D4DB28"/>
<path d="M32.3685 25.7638C33.5147 25.7638 34.6064 25.7638 35.7527 25.7638C36.0802 25.7638 36.4623 25.7638 36.626 26.1458C36.7898 26.5279 36.5715 26.8009 36.2985 27.0738C34.7702 28.6021 33.1872 30.1851 31.6589 31.7134C30.6218 32.7505 29.148 32.5322 28.4384 31.2768C27.8926 30.3488 27.5105 29.3663 27.2375 28.3292C26.8555 26.8554 27.6742 25.7638 29.2026 25.7092C30.2397 25.7638 31.2768 25.7638 32.3685 25.7638Z" fill="#D4DB28"/>
<path d="M39.8466 18.3949C39.8466 19.432 39.8466 20.4691 39.8466 21.5062C39.8466 21.8883 39.8466 22.2704 40.2833 22.4341C40.6654 22.5979 40.9383 22.3795 41.2113 22.1066C42.7942 20.5237 44.3771 18.9953 45.9055 17.3578C46.888 16.3207 46.6697 15.0107 45.5234 14.2465C44.5955 13.646 43.5584 13.264 42.5213 12.991C40.9929 12.6089 39.9012 13.4823 39.9012 15.0652C39.7921 16.2115 39.7921 17.3032 39.8466 18.3949C39.7921 18.3949 39.8466 18.3949 39.8466 18.3949Z" fill="#D4DB28"/>
<path d="M39.792 31.7135C39.792 32.7506 39.792 33.7877 39.792 34.8248C39.792 36.5169 40.9928 37.3902 42.6304 36.9536C43.6129 36.6806 44.5954 36.2985 45.4688 35.7527C46.615 35.0431 46.7788 33.5693 45.8508 32.5868C44.3225 31.0585 42.7941 29.5301 41.2658 28.0017C40.9383 27.6742 40.6653 27.4013 40.2287 27.5651C39.792 27.7288 39.8466 28.1109 39.8466 28.5476C39.8466 29.5847 39.8466 30.6218 39.792 31.7135C39.8466 31.7135 39.8466 31.7135 39.792 31.7135Z" fill="#D4DB28"/>
<path d="M46.0145 24.3446C47.1062 24.3446 48.1433 24.3446 49.235 24.3446C50.6542 24.3446 51.5275 23.1438 51.2 21.7791C50.9271 20.7966 50.545 19.8141 50.0538 18.8862C49.2896 17.467 47.8158 17.2487 46.6695 18.3949C45.0866 19.9233 43.5582 21.5062 42.0299 23.0346C41.8115 23.2529 41.5932 23.4713 41.7024 23.8533C41.8661 24.2354 42.1391 24.3446 42.5211 24.3446C43.722 24.3992 44.8683 24.3446 46.0145 24.3446Z" fill="#D4DB28"/>
<path d="M46.0147 25.6546C44.8684 25.6546 43.7767 25.6546 42.6304 25.6546C42.3029 25.6546 41.9208 25.6546 41.7571 26.0367C41.5933 26.4188 41.8117 26.6917 42.0846 26.9646C43.613 28.493 45.1959 30.0759 46.7243 31.6043C47.7614 32.6414 49.2351 32.4231 49.9447 31.1676C50.4906 30.2397 50.8727 29.2572 51.1456 28.2201C51.5277 26.7463 50.7089 25.6546 49.1806 25.6C48.1435 25.6546 47.0518 25.6546 46.0147 25.6546Z" fill="#D4DB28"/>
<defs>
<linearGradient id="paint0_linear_167_408" x1="56.1791" y1="6.00383" x2="68.4444" y2="2.52867" gradientUnits="userSpaceOnUse">
<stop stop-color="#8EBC3E"/>
<stop offset="0.975" stop-color="#729E41"/>
</linearGradient>
<linearGradient id="paint1_linear_167_408" x1="4.24233" y1="48.4915" x2="54.5303" y2="19.6679" gradientUnits="userSpaceOnUse">
<stop offset="0.3095" stop-color="#8EBC3E"/>
<stop offset="0.975" stop-color="#729E41"/>
</linearGradient>
</defs>
</svg>
