<svg width="42" height="43" viewBox="0 0 42 43" fill="none" xmlns="http://www.w3.org/2000/svg">
<rect x="0.115479" width="41.3462" height="43" rx="10" fill="#2E2E2E"/>
<path d="M26.742 21.6262C26.7316 19.8229 27.5392 18.4639 29.1701 17.4617C28.2579 16.1397 26.8779 15.4125 25.0589 15.2724C23.3365 15.1349 21.4521 16.2877 20.7621 16.2877C20.0329 16.2877 18.3654 15.32 17.0533 15.32C14.3456 15.3623 11.468 17.504 11.468 21.8616C11.468 23.1492 11.7006 24.4792 12.1659 25.8489C12.7879 27.6522 15.0304 32.0705 17.3696 31.9991C18.5928 31.9701 19.4579 31.1213 21.0496 31.1213C22.5942 31.1213 23.394 31.9991 24.7583 31.9991C27.1184 31.9648 29.1466 27.9483 29.7372 26.1398C26.5721 24.63 26.742 21.7188 26.742 21.6262ZM23.9951 13.5616C25.3202 11.9699 25.2 10.5209 25.1608 10C23.9899 10.0687 22.636 10.8065 21.865 11.7134C21.0156 12.6864 20.5164 13.8895 20.6235 15.2459C21.8885 15.3438 23.0438 14.6854 23.9951 13.5616Z" fill="white"/>
</svg>
