<svg width="248" height="56" viewBox="0 0 248 56" fill="none" xmlns="http://www.w3.org/2000/svg">
<path d="M17.7945 39.1916H1.31002C0.600428 39.1916 0 38.5912 0 37.8816C0 37.172 0.600428 36.5715 1.31002 36.5715H17.7945C18.5041 36.5715 19.1045 37.172 19.1045 37.8816C19.1045 38.5912 18.5041 39.1916 17.7945 39.1916Z" fill="white"/>
<path d="M23.3621 46.2875H15.6657C14.9561 46.2875 14.3557 45.6871 14.3557 44.9775C14.3557 44.2679 14.9561 43.6675 15.6657 43.6675H23.3621C24.0717 43.6675 24.6721 44.2679 24.6721 44.9775C24.6721 45.6871 24.0717 46.2875 23.3621 46.2875Z" fill="white"/>
<path d="M29.9668 53.7109H14.3557C13.6461 53.7109 13.0457 53.1104 13.0457 52.4008C13.0457 51.6912 13.6461 51.0908 14.3557 51.0908H29.9668C30.6764 51.0908 31.2768 51.6912 31.2768 52.4008C31.2768 53.165 30.6764 53.7109 29.9668 53.7109Z" fill="white"/>
<path d="M70.5229 6.71387C70.4683 6.55011 70.3045 6.55011 70.1408 6.55011C69.1037 6.27719 68.1757 5.78593 67.357 5.07634C66.702 4.47591 66.0469 3.8209 65.3919 3.22047C64.6823 2.56546 63.8636 2.0742 62.8811 2.12879C61.1889 2.12879 59.8243 2.89297 58.7327 4.09382C58.3506 4.58508 58.0231 5.07634 57.641 5.62218C57.7501 5.45843 57.8047 5.24009 57.9139 5.02175C58.0231 4.80342 58.1322 4.58508 58.2414 4.42133C58.3506 4.25757 58.5143 4.03924 58.5689 3.8209C58.6235 3.71173 58.6235 3.54798 58.6235 3.38423C58.5689 3.16589 58.4597 2.94755 58.296 2.72921C58.0776 2.45629 57.7501 2.23796 57.4772 2.01962C56.6584 1.47378 55.8943 0.927933 55.4576 0C54.5297 1.0371 54.3113 2.94755 54.9118 4.14841C55.1847 4.63966 55.5122 5.13092 55.8943 5.5676C56.2218 5.94969 56.3855 6.49553 56.7676 6.82303C56.9314 6.9322 57.0951 7.04137 57.3135 7.09596C58.4597 7.53263 59.606 8.02389 60.7523 8.56973C61.844 9.11557 62.9356 9.49766 64.1365 9.55225C66.5382 9.66142 68.5578 8.6789 70.2499 7.04137C70.3591 6.9322 70.5229 6.87762 70.5229 6.71387ZM56.1126 2.83838C57.5864 3.32964 58.0776 4.36674 57.2589 5.29467C57.8593 4.03924 56.986 3.49339 56.1126 2.83838ZM63.9182 5.67676C62.6081 4.36674 61.3527 4.31216 59.9335 5.18551C59.8789 5.18551 59.8243 5.24009 59.7697 5.24009C60.8068 3.98465 62.5535 3.76632 63.7544 5.07634C64.1911 5.51301 64.5732 5.94969 65.0098 6.44094C64.5732 6.33178 64.2457 6.00427 63.9182 5.67676Z" fill="url(#paint0_linear_167_357)"/>
<path d="M71.014 16.8666C71.014 17.9583 70.2498 18.777 69.1581 18.777C68.121 18.777 67.2477 17.9583 67.1931 16.9758C67.1931 15.8841 68.0119 15.0107 69.1036 15.0107C70.1407 14.9561 71.014 15.8295 71.014 16.8666Z" fill="#D4DB28"/>
<path d="M60.8614 15.3383C60.916 14.6832 61.4619 14.192 62.1715 14.2466C62.8265 14.3012 63.3177 14.847 63.2631 15.4474C63.2086 16.157 62.6627 16.6483 62.0077 16.5937C61.3527 16.5391 60.8069 15.9933 60.8614 15.3383Z" fill="#D4DB28"/>
<path d="M76.4726 15.9387C76.4726 16.4299 76.0905 16.8666 75.5447 16.9212C74.9988 16.9212 74.5076 16.4845 74.5076 15.9932C74.5076 15.502 74.9442 15.0653 75.4355 15.0107C75.9813 14.9561 76.4726 15.3928 76.4726 15.9387Z" fill="#D4DB28"/>
<path d="M66.047 12.8272C65.9378 13.1547 65.7741 13.4277 65.4466 13.3731C65.1191 13.3185 64.9553 13.1002 64.9553 12.7726C64.9553 12.3906 65.2282 12.2268 65.5558 12.2268C65.8833 12.2814 66.047 12.4997 66.047 12.8272Z" fill="#D4DB28"/>
<path d="M73.3613 20.4144C73.143 20.3598 72.9792 20.2507 72.9792 19.9778C72.9792 19.7048 73.143 19.5411 73.4159 19.5957C73.6343 19.6502 73.798 19.814 73.7434 20.0323C73.7434 20.3053 73.5797 20.4144 73.3613 20.4144Z" fill="#D4DB28"/>
<path d="M59.5515 22.3249C59.3878 20.9057 59.0603 19.5411 58.569 18.2311H58.6236C58.3507 17.194 57.9686 16.1569 57.5319 15.0652C56.8769 13.5914 56.2765 12.1177 55.8398 10.5893C55.4031 9.06095 54.5298 8.02385 52.8923 7.69634C51.1456 7.31425 49.4535 6.65924 47.8159 6.00423C46.6151 5.51297 45.4142 5.24005 44.1588 5.02171C43.8313 4.96713 43.5038 4.91254 43.1763 4.91254C41.5933 4.58504 39.9558 4.3667 38.2637 4.3667C33.7878 4.47587 29.1481 6.22256 25.1635 9.77054C16.7029 17.4123 16.1025 30.7855 24.0172 39.0277C28.766 43.9403 33.624 50.4358 38.482 55.2392C38.9733 55.7305 39.3008 55.7305 39.7375 55.2392C44.4863 50.4904 49.2897 44.0495 53.9294 39.2461C58.5144 34.5518 60.3703 28.8205 59.5515 22.3249ZM39.1916 40.9382C30.4035 40.9382 23.3076 33.8422 23.3076 25.0541C23.3076 16.2661 30.4035 9.17011 39.1916 9.17011C47.9797 9.17011 55.0756 16.2661 55.0756 25.0541C55.0756 33.8422 47.9797 40.9382 39.1916 40.9382Z" fill="url(#paint1_linear_167_357)"/>
<path d="M38.5364 18.5041C38.5364 19.5412 38.5364 20.5783 38.5364 21.6154C38.5364 21.9975 38.5364 22.3796 38.0997 22.5433C37.7176 22.7071 37.4447 22.4887 37.1718 22.2158C35.5888 20.6329 34.0059 19.1045 32.4775 17.467C31.495 16.4299 31.7133 15.1198 32.8596 14.3557C33.7875 13.7552 34.8246 13.3731 35.8617 13.1002C37.3901 12.7181 38.4818 13.5915 38.4818 15.1744C38.591 16.3207 38.5364 17.4124 38.5364 18.5041Z" fill="#D4DB28"/>
<path d="M38.5365 31.8226C38.5365 32.8597 38.5365 33.8968 38.5365 34.9339C38.5365 36.626 37.3357 37.4994 35.6981 37.0627C34.7156 36.7898 33.7331 36.4077 32.8597 35.8618C31.7135 35.1522 31.5497 33.6785 32.4777 32.6959C34.006 31.1676 35.5344 29.6392 37.0627 28.1109C37.3902 27.7834 37.6632 27.5104 38.0998 27.6742C38.5365 27.8379 38.4819 28.22 38.4819 28.6567C38.4819 29.6938 38.4819 30.7309 38.5365 31.8226Z" fill="#D4DB28"/>
<path d="M32.3138 24.4537C31.2221 24.4537 30.185 24.4537 29.0934 24.4537C27.6742 24.4537 26.8008 23.2529 27.1283 21.8883C27.4012 20.9058 27.7833 19.9232 28.2746 18.9953C29.0388 17.5761 30.5125 17.3578 31.6588 18.5041C33.2418 20.0324 34.7701 21.6154 36.2985 23.1437C36.5168 23.3621 36.7352 23.5804 36.626 23.9625C36.4622 24.3446 36.1893 24.4537 35.8072 24.4537C34.661 24.5083 33.4601 24.5083 32.3138 24.4537Z" fill="#D4DB28"/>
<path d="M32.3685 25.7638C33.5147 25.7638 34.6064 25.7638 35.7527 25.7638C36.0802 25.7638 36.4623 25.7638 36.626 26.1459C36.7898 26.528 36.5715 26.8009 36.2985 27.0738C34.7702 28.6022 33.1872 30.1851 31.6589 31.7135C30.6218 32.7506 29.148 32.5323 28.4384 31.2768C27.8926 30.3489 27.5105 29.3664 27.2375 28.3293C26.8555 26.8555 27.6742 25.7638 29.2026 25.7092C30.2397 25.7638 31.2768 25.7638 32.3685 25.7638Z" fill="#D4DB28"/>
<path d="M39.8466 18.3949C39.8466 19.432 39.8466 20.4691 39.8466 21.5062C39.8466 21.8883 39.8466 22.2704 40.2833 22.4342C40.6654 22.5979 40.9383 22.3796 41.2113 22.1067C42.7942 20.5237 44.3771 18.9954 45.9055 17.3578C46.888 16.3207 46.6697 15.0107 45.5234 14.2465C44.5955 13.6461 43.5584 13.264 42.5213 12.9911C40.9929 12.609 39.9012 13.4824 39.9012 15.0653C39.7921 16.2116 39.7921 17.3033 39.8466 18.3949C39.7921 18.3949 39.8466 18.3949 39.8466 18.3949Z" fill="#D4DB28"/>
<path d="M39.792 31.7135C39.792 32.7506 39.792 33.7877 39.792 34.8248C39.792 36.5169 40.9928 37.3902 42.6304 36.9536C43.6129 36.6806 44.5954 36.2985 45.4688 35.7527C46.615 35.0431 46.7788 33.5693 45.8508 32.5868C44.3225 31.0585 42.7941 29.5301 41.2658 28.0017C40.9383 27.6742 40.6653 27.4013 40.2287 27.5651C39.792 27.7288 39.8466 28.1109 39.8466 28.5476C39.8466 29.5847 39.8466 30.6218 39.792 31.7135C39.8466 31.7135 39.8466 31.7135 39.792 31.7135Z" fill="#D4DB28"/>
<path d="M46.0145 24.3446C47.1062 24.3446 48.1433 24.3446 49.235 24.3446C50.6542 24.3446 51.5275 23.1438 51.2 21.7791C50.9271 20.7966 50.545 19.8141 50.0538 18.8862C49.2896 17.467 47.8158 17.2487 46.6695 18.3949C45.0866 19.9233 43.5582 21.5062 42.0299 23.0346C41.8115 23.2529 41.5932 23.4713 41.7024 23.8533C41.8661 24.2354 42.1391 24.3446 42.5211 24.3446C43.722 24.3992 44.8683 24.3446 46.0145 24.3446Z" fill="#D4DB28"/>
<path d="M46.0147 25.6547C44.8684 25.6547 43.7767 25.6547 42.6304 25.6547C42.3029 25.6547 41.9208 25.6547 41.7571 26.0368C41.5933 26.4189 41.8117 26.6918 42.0846 26.9647C43.613 28.4931 45.1959 30.076 46.7243 31.6044C47.7614 32.6415 49.2351 32.4231 49.9447 31.1677C50.4906 30.2398 50.8727 29.2572 51.1456 28.2201C51.5277 26.7464 50.7089 25.6547 49.1806 25.6001C48.1435 25.6547 47.0518 25.6547 46.0147 25.6547Z" fill="#D4DB28"/>
<path d="M95.4722 26.8137C95.7997 26.8683 96.1818 26.8137 96.5093 26.8137C100.549 26.6499 101.258 27.5779 100.712 32.545C100.439 34.7284 99.9481 35.3834 98.1468 35.2742C96.7822 35.1651 95.363 34.8376 93.9984 34.8376C91.3783 34.8376 91.1054 35.2742 91.16 38.331C91.16 39.9139 91.1054 41.5514 91.1054 43.1344C91.1054 44.0623 90.9417 44.8265 90.3412 45.4269C89.4133 46.4094 85.2103 46.464 84.2278 45.5907C83.5728 44.9357 83.7365 44.0077 83.7365 43.189C83.7365 39.641 83.8457 36.1476 83.7911 32.5996C83.7365 27.5233 83.6274 22.3924 83.5182 17.2614C83.4636 14.0955 83.9003 13.3859 86.5203 13.5497C90.1775 13.768 93.8346 13.9864 97.5464 13.6589C99.7843 13.4951 100.549 14.8597 100.385 17.6981C99.9481 23.1565 100.494 23.3749 95.1447 23.1565C94.2713 23.1565 93.398 23.1019 92.5246 23.1565C91.4329 23.3203 91.2146 24.3028 91.2692 25.5582C91.3783 26.7591 91.9242 27.1412 92.9067 27.032C93.7255 26.8683 94.5988 26.8683 95.4722 26.8137Z" fill="white"/>
<path d="M111.029 30.4707C110.537 32.1083 111.029 33.7458 110.974 35.2742C110.865 37.8396 110.865 38.5492 108.136 38.5492C107.972 38.6038 107.808 38.6038 107.644 38.6038C103.278 38.6038 103.441 38.2763 103.551 33.9641C103.714 27.3048 103.714 20.7001 103.332 14.0409C103.278 13.3859 103.168 12.7308 103.278 12.0758C103.332 10.6566 104.042 9.78329 105.352 9.78329C108.9 9.67412 112.339 9.40121 116.05 10.0016C118.943 10.7112 120.526 13.0584 121.072 15.8967C121.673 19.281 121.454 22.7744 118.616 25.1761C117.47 26.2132 117.688 27.0319 118.343 28.3419C119.653 30.7437 121.509 32.8179 122.328 35.5471C123.146 38.1125 122.928 38.7675 120.581 38.6038C114.522 38.6038 115.887 39.095 113.048 33.2545C112.502 32.272 112.339 31.0166 111.029 30.4707ZM112.12 18.1347C111.52 18.353 110.701 18.7351 110.865 19.936C110.974 20.8639 110.701 22.1193 111.902 22.5014C112.612 22.7198 113.867 21.4097 113.922 20.3726C113.976 19.3901 113.212 18.2439 112.12 18.1347Z" fill="white"/>
<path d="M125.22 34.619C125.603 31.071 125.275 27.2501 125.111 23.3201C125.111 22.8834 125.057 22.3921 125.166 21.9555C125.275 20.5909 125.712 20.0996 127.022 20.2088C130.351 20.4271 133.626 20.318 136.902 20.2634C138.648 20.2088 139.303 20.973 139.358 22.7197C139.412 23.2655 139.358 23.7568 139.249 24.3026C138.921 26.1039 138.266 26.6497 136.465 26.3768C135.428 26.2131 134.391 26.2676 133.299 26.2676C132.862 26.2131 132.426 26.3222 131.989 26.486C131.334 26.7589 131.006 27.2502 131.17 27.9052C131.334 28.5056 131.771 28.7239 132.316 28.7239C133.299 28.7239 134.281 28.6693 135.264 28.5602C136.246 28.451 137.502 28.0689 138.102 29.2698C138.703 30.5798 138.539 32.0536 138.048 33.4182C137.775 34.0732 137.011 34.2369 136.301 34.2915C135.155 34.4007 134.063 34.0732 132.917 34.0732C131.443 34.0186 131.006 34.5099 131.116 35.8745C131.225 36.6932 131.552 37.1299 132.426 37.0753C133.954 37.0207 135.428 37.0207 136.956 37.0207C138.812 37.0207 139.194 37.4028 139.249 39.2587C139.358 42.6975 139.139 42.9158 135.701 42.9158C133.081 42.9158 130.406 42.9158 127.841 42.8613C125.712 42.8613 125.275 42.5337 125.275 40.405V34.619H125.22Z" fill="white"/>
<path d="M151.803 41.0056C148.856 41.0056 146.072 40.296 143.506 39.0405C140.886 37.7305 140.832 36.6934 142.797 34.6192C143.124 34.2917 143.397 33.9096 143.779 33.5821C145.417 31.8354 145.471 31.7808 147.709 32.9817C148.637 33.4729 149.565 34.0188 150.711 34.1279C151.912 34.2917 152.949 34.1825 153.386 32.9817C153.714 31.9446 152.949 31.3441 152.021 30.9075C149.784 29.7066 147.436 28.6695 145.253 27.4141C140.886 24.794 140.668 16.5518 146.836 13.9318C151.257 12.1305 155.569 12.5671 159.663 14.8597C161.301 15.8422 161.355 16.3335 160.318 17.7527C159.718 18.5168 159.063 19.1718 158.462 19.8814C157.48 21.0277 156.497 21.4644 154.86 20.7002C153.877 20.2635 152.24 19.6085 151.639 20.864C151.039 22.1194 152.731 22.5561 153.714 23.1019C155.351 23.8661 156.989 24.7394 158.572 25.722C162.01 27.8508 162.829 31.1258 161.792 34.8921C160.81 38.3309 157.807 40.5689 153.823 40.8964C153.222 41.0601 152.458 41.0056 151.803 41.0056Z" fill="white"/>
<path d="M165.067 24.6301C165.013 21.1367 165.34 17.5887 164.631 14.1499C164.521 13.5495 164.576 12.8945 164.685 12.1849C164.849 11.0932 165.34 10.2199 166.65 10.1653C167.851 10.1107 169.052 9.94695 170.198 10.1107C171.617 10.2199 172.109 10.8203 172.109 12.2941C172.163 13.7678 171.999 15.187 171.836 16.6608C171.617 18.5713 171.89 18.8442 173.637 18.9534C175.002 19.0079 176.312 18.8442 177.622 18.8442C178.659 18.7896 178.986 18.4075 178.932 17.3704C178.822 15.7875 178.822 14.0954 178.822 12.5124C178.768 10.6565 179.205 10.2199 180.951 10.1107C181.77 10.0015 182.534 10.0561 183.298 10.0561C185.482 10.1653 186.41 11.0386 186.246 13.222C185.7 19.4992 185.864 25.7218 185.864 31.999C185.864 34.2915 185.7 34.5099 183.517 34.7828C183.353 34.7828 183.189 34.8374 183.08 34.8374C179.477 35.1649 178.877 34.5645 179.095 30.8527C179.15 29.5973 179.259 28.3964 179.259 27.1956C179.259 26.2131 178.877 25.6672 177.785 25.7218C176.366 25.7764 174.947 25.7764 173.528 25.831C171.89 25.9401 171.617 26.1585 171.617 27.8506C171.617 29.4335 171.781 31.1256 171.781 32.7086C171.836 34.3461 171.563 34.5099 170.089 34.7828C169.871 34.8374 169.598 34.8374 169.379 34.8374C165.176 35.0011 164.958 34.7828 165.013 30.4706V24.6301H165.067Z" fill="white"/>
<path d="M202.73 40.8964H196.672C194.761 40.8418 194.27 40.5143 193.888 38.7676C193.724 38.058 193.506 37.2938 193.56 36.5296C194.161 30.4162 194.106 24.1936 193.451 18.0802C193.014 13.5497 193.724 12.8401 198.473 12.8946C201.693 12.9492 202.075 13.1676 201.966 16.1151C201.966 21.0277 201.857 25.9403 201.748 30.7983C201.693 32.7087 202.075 33.0908 204.04 33.1454C205.733 33.2 207.37 33.0908 209.062 33.0908C210.918 33.1454 211.409 33.5821 211.791 35.3288C212.119 36.6934 211.791 37.8942 211.682 39.1497C211.573 40.4051 210.481 40.7326 209.28 40.7326C207.097 40.678 204.968 40.678 202.785 40.678V40.8964H202.73Z" fill="url(#paint2_linear_167_357)"/>
<path d="M217.686 9.29202C220.361 9.18286 220.907 9.72869 220.688 12.7854C220.197 18.2984 220.252 23.8114 220.416 29.3245C220.47 31.7262 219.979 32.3812 217.85 32.5449C217.304 32.5995 216.758 32.4903 216.213 32.4358C215.121 32.272 214.63 31.617 214.63 30.4161C214.575 28.1236 214.575 25.8311 214.52 23.5385C214.466 19.9905 214.302 16.4426 214.193 12.8946C214.084 9.67412 214.247 9.45578 217.086 9.34661C217.195 9.34661 217.359 9.29202 217.523 9.29202H217.686Z" fill="url(#paint3_linear_167_357)"/>
<path d="M231.114 18.3531C233.789 18.2439 234.335 18.7897 234.116 21.8464C233.625 27.3595 233.679 32.8725 233.843 38.3855C233.898 40.7872 233.407 41.4422 231.278 41.606C230.732 41.6605 230.186 41.5514 229.64 41.4968C228.549 41.333 228.057 40.678 228.057 39.4772C228.003 37.1846 228.003 34.8921 227.948 32.5996C227.894 29.0516 227.73 25.5036 227.621 21.9556C227.511 18.7351 227.675 18.5168 230.514 18.4076C230.623 18.4076 230.787 18.3531 230.95 18.3531H231.114Z" fill="url(#paint4_linear_167_357)"/>
<path d="M244.542 11.9666C247.216 11.8574 247.762 12.4033 247.544 15.46C247.053 20.973 247.107 26.486 247.271 31.999C247.326 34.4007 246.834 35.0557 244.706 35.2195C244.16 35.2741 243.614 35.1649 243.068 35.1103C241.976 34.9466 241.485 34.2916 241.485 33.0907C241.43 30.7982 241.43 28.5056 241.376 26.2131C241.321 22.6651 241.158 19.1171 241.048 15.5691C240.939 12.3487 241.103 12.1303 243.941 12.0212C244.051 12.0212 244.214 11.9666 244.378 11.9666H244.542Z" fill="url(#paint5_linear_167_357)"/>
<defs>
<linearGradient id="paint0_linear_167_357" x1="56.1791" y1="6.00383" x2="68.4444" y2="2.52867" gradientUnits="userSpaceOnUse">
<stop stop-color="#8EBC3E"/>
<stop offset="0.975" stop-color="#729E41"/>
</linearGradient>
<linearGradient id="paint1_linear_167_357" x1="4.24233" y1="48.4915" x2="54.5303" y2="19.6679" gradientUnits="userSpaceOnUse">
<stop offset="0.3095" stop-color="#8EBC3E"/>
<stop offset="0.975" stop-color="#729E41"/>
</linearGradient>
<linearGradient id="paint2_linear_167_357" x1="179.41" y1="33.4224" x2="244.008" y2="15.4331" gradientUnits="userSpaceOnUse">
<stop stop-color="#8EBC3E"/>
<stop offset="0.975" stop-color="#729E41"/>
</linearGradient>
<linearGradient id="paint3_linear_167_357" x1="178.899" y1="31.5863" x2="243.496" y2="13.5971" gradientUnits="userSpaceOnUse">
<stop stop-color="#8EBC3E"/>
<stop offset="0.975" stop-color="#729E41"/>
</linearGradient>
<linearGradient id="paint4_linear_167_357" x1="182.21" y1="43.4756" x2="246.807" y2="25.4864" gradientUnits="userSpaceOnUse">
<stop stop-color="#8EBC3E"/>
<stop offset="0.975" stop-color="#729E41"/>
</linearGradient>
<linearGradient id="paint5_linear_167_357" x1="181.524" y1="41.0141" x2="246.122" y2="23.0249" gradientUnits="userSpaceOnUse">
<stop stop-color="#8EBC3E"/>
<stop offset="0.975" stop-color="#729E41"/>
</linearGradient>
</defs>
</svg>
